<svg xmlns="http://www.w3.org/2000/svg" width="151" height="27" viewBox="0 0 151 27">
    <g fill="none" fill-rule="evenodd">
        <path fill="#DF9186" d="M40.115 22.197V5.625h10.368v2.559h-7.385v4.232h6.557v2.56h-6.557v7.221zM57.324 22.437c-.853-.016-1.559-.112-2.119-.287-.56-.176-1.006-.427-1.337-.753a2.675 2.675 0 0 1-.699-1.22 6.262 6.262 0 0 1-.201-1.662V4.118l2.864-.478v14.325c0 .35.028.645.083.885.055.239.154.442.296.61.142.167.335.294.58.382.245.088.556.156.935.203l-.402 2.392zM68.307 15.932c0-1.244-.264-2.228-.793-2.954-.529-.725-1.266-1.088-2.213-1.088-.947 0-1.685.363-2.214 1.088-.528.726-.793 1.71-.793 2.954 0 1.26.265 2.256.793 2.989.53.733 1.267 1.1 2.214 1.1.947 0 1.684-.367 2.213-1.1.529-.733.793-1.73.793-2.99m2.935 0c0 .99-.142 1.89-.426 2.703-.284.813-.686 1.507-1.207 2.08a5.429 5.429 0 0 1-1.882 1.34c-.734.319-1.542.478-2.426.478-.884 0-1.689-.16-2.415-.478a5.457 5.457 0 0 1-1.87-1.34c-.52-.573-.927-1.267-1.219-2.08-.292-.813-.438-1.714-.438-2.702 0-.989.146-1.886.438-2.69a6.062 6.062 0 0 1 1.231-2.07 5.44 5.44 0 0 1 1.882-1.326c.726-.311 1.523-.467 2.39-.467.869 0 1.67.156 2.403.467.734.31 1.362.753 1.882 1.327.521.574.928 1.263 1.22 2.068.291.805.437 1.702.437 2.69M81.34 14.329a83.297 83.297 0 0 1-1.17 4.101 131.117 131.117 0 0 1-1.243 3.767h-2.352a50.703 50.703 0 0 1-.996-2.511 84.941 84.941 0 0 1-1.043-3.013 133.431 133.431 0 0 1-1.044-3.372 174.92 174.92 0 0 1-1.02-3.611h3.032c.144.67.31 1.39.5 2.164.19.773.388 1.562.595 2.367.207.806.42 1.59.641 2.356.223.765.444 1.467.667 2.104.236-.733.471-1.488.7-2.271a94.39 94.39 0 0 0 .653-2.344c.205-.78.398-1.542.58-2.284.183-.741.345-1.439.487-2.092h2.204a132.018 132.018 0 0 0 1.023 4.376c.2.781.41 1.562.64 2.344.226.783.461 1.538.696 2.271.205-.637.42-1.339.643-2.104.22-.765.44-1.55.653-2.356.215-.805.418-1.594.608-2.367.189-.773.355-1.495.5-2.164h2.96c-.332 1.23-.673 2.431-1.02 3.61-.35 1.18-.699 2.304-1.044 3.373a81.046 81.046 0 0 1-1.045 3.013c-.346.94-.687 1.78-1.018 2.51h-2.33c-.408-1.179-.83-2.434-1.264-3.766a68.94 68.94 0 0 1-1.194-4.101M99.46 12.297a9.056 9.056 0 0 0-.983-.25 7.154 7.154 0 0 0-1.456-.132c-.316 0-.651.032-1.006.095-.355.064-.604.12-.746.168v10.02h-2.864v-11.91c.552-.207 1.243-.402 2.071-.585.829-.184 1.748-.275 2.758-.275.19 0 .41.012.663.035.252.024.505.056.757.096.253.04.497.088.734.144.237.055.426.107.568.155l-.497 2.44zM106.063 19.95c1.073 0 1.854-.184 2.343-.55.491-.367.736-.885.736-1.555 0-.398-.083-.741-.249-1.028a2.624 2.624 0 0 0-.712-.777 5.87 5.87 0 0 0-1.124-.646c-.442-.2-.947-.395-1.515-.586a20.366 20.366 0 0 1-1.645-.681 5.539 5.539 0 0 1-1.397-.921 4.237 4.237 0 0 1-.97-1.315c-.245-.51-.365-1.124-.365-1.842 0-1.498.51-2.674 1.536-3.527 1.026-.853 2.423-1.28 4.19-1.28 1.026 0 1.937.116 2.736.347.795.231 1.423.482 1.882.753l-.925 2.44a6.969 6.969 0 0 0-1.764-.694 8.136 8.136 0 0 0-1.976-.239c-.805 0-1.432.167-1.882.502-.45.335-.673.805-.673 1.411 0 .367.073.682.223.945.15.263.363.498.64.705.275.208.599.399.97.574.37.176.777.343 1.219.502.773.287 1.466.578 2.071.873a5.86 5.86 0 0 1 1.54 1.053c.417.406.739.884.958 1.434.22.55.331 1.216.331 1.997 0 1.499-.525 2.659-1.574 3.48-1.05.82-2.584 1.231-4.604 1.231a12.02 12.02 0 0 1-3.348-.454c-.436-.128-.809-.26-1.126-.395a6.666 6.666 0 0 1-.756-.37l.874-2.463c.426.239 1.002.478 1.728.717.726.24 1.602.359 2.628.359M122.942 16.004c0-1.292-.288-2.296-.862-3.013-.578-.718-1.505-1.077-2.783-1.077-.269 0-.549.012-.839.036a4.564 4.564 0 0 0-.866.156v7.15c.253.176.588.339 1.006.49a3.9 3.9 0 0 0 1.34.228c1.04 0 1.8-.36 2.282-1.077.481-.717.722-1.682.722-2.893m2.935-.048c0 .957-.122 1.833-.367 2.63-.244.798-.595 1.483-1.051 2.057a4.707 4.707 0 0 1-1.718 1.34c-.687.318-1.464.478-2.332.478-.584 0-1.12-.072-1.61-.216a5.98 5.98 0 0 1-1.207-.478v4.855h-2.864V10.097a22.6 22.6 0 0 1 2.154-.454 16.245 16.245 0 0 1 2.699-.216c.978 0 1.854.152 2.627.455a5.47 5.47 0 0 1 1.977 1.303 5.75 5.75 0 0 1 1.254 2.057c.292.805.438 1.71.438 2.714M137.097 15.932c0-1.244-.266-2.228-.793-2.954-.53-.725-1.266-1.088-2.213-1.088-.947 0-1.685.363-2.213 1.088-.529.726-.793 1.71-.793 2.954 0 1.26.264 2.256.793 2.989.528.733 1.266 1.1 2.213 1.1.947 0 1.683-.367 2.213-1.1.527-.733.793-1.73.793-2.99m2.934 0c0 .99-.14 1.89-.426 2.703-.283.813-.685 1.507-1.206 2.08a5.429 5.429 0 0 1-1.882 1.34c-.733.319-1.542.478-2.426.478-.886 0-1.69-.16-2.415-.478a5.438 5.438 0 0 1-1.87-1.34c-.52-.573-.927-1.267-1.219-2.08-.294-.813-.438-1.714-.438-2.702 0-.989.144-1.886.438-2.69a6.062 6.062 0 0 1 1.231-2.07 5.422 5.422 0 0 1 1.882-1.326c.726-.311 1.521-.467 2.391-.467.868 0 1.667.156 2.4.467a5.28 5.28 0 0 1 1.883 1.327c.522.574.927 1.263 1.22 2.068.293.805.437 1.702.437 2.69M142.85 6.39l2.864-.478V9.69h4.405v2.415h-4.405V17.2c0 1.005.158 1.722.473 2.152.318.43.852.646 1.612.646a5.18 5.18 0 0 0 1.383-.167c.402-.112.722-.216.958-.311l.476 2.296c-.332.143-.768.29-1.304.442-.537.151-1.166.227-1.894.227-.884 0-1.621-.12-2.213-.359-.59-.239-1.061-.585-1.409-1.04-.345-.454-.59-1.004-.733-1.65-.142-.646-.213-1.383-.213-2.212V6.39z"/>
        <path fill="#EAA79E" d="M16.428 22.091c1.41-1.843 3.778-5.596 3.778-9.996 0-.37-.02-.747-.056-1.15l-.047-.498.438-.237c3.318-1.804 7.025-1.895 7.733-1.895.12 0 .187.002.187.002l.698.028.022.705c.01.27.162 6.66-3.742 10.602-2.462 2.487-5.888 3.358-8.33 3.651l-1.77.213 1.089-1.425z"/>
        <path fill="#ECBCB3" d="M14.762 23.36l.237-.717-.256.711-.263-.09-.128-.14c-.771-.854-4.624-5.388-4.624-11.03 0-6.078 4.506-10.904 4.7-11.106l.54-.57.538.57c.193.202 4.699 5.028 4.699 11.107 0 5.849-4.182 10.548-4.66 11.064l-.327.355-.456-.154z"/>
        <path fill="#E89489" d="M8.951 9.991a14.9 14.9 0 0 0-2.534-.972l-.62-.178.08-.643c.28-2.294.89-3.926.916-3.994l.282-.745.722.324c.054.024 1.34.608 2.914 1.762l.483.353-.234.556a15.97 15.97 0 0 0-.947 3.013l-.198.953-.864-.429zM19.919 9.458c-.208-1-.525-2.01-.945-3.001l-.235-.556.483-.355c1.574-1.152 2.859-1.736 2.912-1.762l.722-.327.282.748c.028.067.635 1.698.917 3.99l.08.645-.62.175c-.894.254-1.748.578-2.537.969l-.864.426-.195-.952z"/>
        <path fill="#EAA79E" d="M12.825 23.304c-2.443-.293-5.871-1.164-8.333-3.653C.59 15.709.742 9.32.75 9.049l.024-.706.7-.025s.065-.002.185-.002c.709 0 4.405.091 7.733 1.9l.436.238-.045.498c-.038.399-.054.773-.054 1.142 0 4.402 2.366 8.153 3.776 9.998l1.089 1.425-1.77-.213z"/>
        <path fill="#BD7C73" d="M24.91 19.118c-2.366 2.391-5.743 3.178-7.89 3.435 1.432-1.87 3.934-5.803 3.934-10.458 0-.413-.022-.82-.06-1.22 3.1-1.684 6.595-1.803 7.38-1.803h.16s.195 6.29-3.523 10.046m-9.913 3.525c-.03-.01-.057-.018-.092-.032-.527-.58-4.429-5.066-4.429-10.516 0-5.845 4.49-10.582 4.49-10.582s4.49 4.737 4.49 10.582c0 5.61-4.123 10.185-4.459 10.548m-9.977-3.525C1.304 15.36 1.5 9.074 1.5 9.074s.055-.002.16-.002c.784 0 4.28.125 7.377 1.811-.035.399-.057.803-.057 1.212 0 4.655 2.5 8.587 3.931 10.458-2.144-.257-5.521-1.044-7.89-3.435M7.492 4.474s1.251.564 2.78 1.682c-.41.967-.76 2.027-.992 3.157A15.505 15.505 0 0 0 6.619 8.29c.274-2.228.873-3.816.873-3.816m14.95 0s.597 1.586.871 3.812c-.866.246-1.767.576-2.661 1.017a16.712 16.712 0 0 0-.99-3.145c1.529-1.118 2.78-1.684 2.78-1.684m6.04 3.087l-.208-.002c-.485 0-1.828.048-3.49.375-.297-2.268-.899-3.878-.948-4.008a1.505 1.505 0 0 0-.823-.849 1.502 1.502 0 0 0-1.175.014c-.11.048-1.32.6-2.827 1.672-1.322-2.54-2.85-4.177-2.963-4.296a1.485 1.485 0 0 0-2.162 0c-.113.117-1.643 1.757-2.965 4.3-1.505-1.07-2.716-1.628-2.825-1.676a1.48 1.48 0 0 0-1.176-.014 1.511 1.511 0 0 0-.822.85c-.05.127-.651 1.737-.949 4.007a19.076 19.076 0 0 0-3.488-.375l-.209.002c-.789.028-1.424.67-1.45 1.465-.008.283-.167 6.989 3.961 11.162 3.772 3.81 9.692 4.001 10.84 4.001l.154-.001.008.001.01-.001.154.001c1.148 0 7.068-.19 10.84-4.001 4.128-4.173 3.968-10.88 3.958-11.162a1.506 1.506 0 0 0-1.446-1.465"/>
    </g>
</svg>
