<svg xmlns="http://www.w3.org/2000/svg" xmlns:xlink="http://www.w3.org/1999/xlink" width="68" height="68" viewBox="0 0 68 68">
    <defs>
        <circle id="b" cx="15" cy="15" r="15"/>
        <filter id="a" width="350%" height="350%" x="-125%" y="-75%" filterUnits="objectBoundingBox">
            <feOffset dy="15" in="SourceAlpha" result="shadowOffsetOuter1"/>
            <feGaussianBlur in="shadowOffsetOuter1" result="shadowBlurOuter1" stdDeviation="10"/>
            <feColorMatrix in="shadowBlurOuter1" values="0 0 0 0 0.917647059 0 0 0 0 0.658823529 0 0 0 0 0.623529412 0 0 0 0.2 0"/>
        </filter>
    </defs>
    <g fill="none" fill-rule="evenodd">
        <g transform="translate(19 4)">
            <use fill="#000" filter="url(#a)" xlink:href="#b"/>
            <use fill="#EAA79E" xlink:href="#b"/>
        </g>
        <path fill="#FFF" d="M40.718 18.439a.872.872 0 0 0 .236-.922.915.915 0 0 0-.753-.61l-3.147-.441a.413.413 0 0 1-.31-.217L35.337 13.5A.931.931 0 0 0 34.5 13a.933.933 0 0 0-.836.501l-1.407 2.748a.41.41 0 0 1-.31.217l-3.148.44a.915.915 0 0 0-.753.611c-.11.329-.02.681.236.922l2.278 2.138a.39.39 0 0 1 .118.351l-.538 3.02a.86.86 0 0 0 .204.728.966.966 0 0 0 1.15.219l2.814-1.426a.434.434 0 0 1 .384 0l2.816 1.426a.948.948 0 0 0 1.149-.218.86.86 0 0 0 .203-.73l-.537-3.019a.39.39 0 0 1 .118-.351l2.277-2.138z"/>
    </g>
</svg>
